<?xml version="1.0" encoding="UTF-8" standalone="no"?>
<!-- Created with Inkscape (http://www.inkscape.org/) -->

<svg
   width="259"
   height="195"
   viewBox="0 0 259 195"
   version="1.1"
   id="svg1"
   inkscape:export-filename="mail-make.svg"
   inkscape:export-xdpi="96"
   inkscape:export-ydpi="96"
   xmlns:inkscape="http://www.inkscape.org/namespaces/inkscape"
   xmlns:sodipodi="http://sodipodi.sourceforge.net/DTD/sodipodi-0.dtd"
   xmlns="http://www.w3.org/2000/svg"
   xmlns:svg="http://www.w3.org/2000/svg">
  <sodipodi:namedview
     id="namedview1"
     pagecolor="#505050"
     bordercolor="#ffffff"
     borderopacity="1"
     inkscape:showpageshadow="0"
     inkscape:pageopacity="0"
     inkscape:pagecheckerboard="1"
     inkscape:deskcolor="#505050"
     inkscape:document-units="px">
    <inkscape:page
       x="0"
       y="0"
       width="259"
       height="195"
       id="page2"
       margin="0"
       bleed="0" />
  </sodipodi:namedview>
  <defs
     id="defs1" />
  <g
     inkscape:label="Layer 1"
     inkscape:groupmode="layer"
     id="layer1">
    <rect
       style="display:inline;fill:#ffffff;fill-opacity:1;stroke:#293475;stroke-width:0;stroke-dasharray:none;stroke-opacity:1"
       id="rect1-3"
       width="259"
       height="195"
       x="-259"
       y="0"
       inkscape:label="background"
       transform="scale(-1,1)" />
    <path
       id="path5"
       style="fill:#ffffff;fill-opacity:1;stroke:#293475;stroke-width:10;stroke-dasharray:none;stroke-opacity:1"
       inkscape:label="cover"
       d="M 11.630267,9.9269384 114.17272,112.25657 c 8.47017,8.45259 22.18439,8.45259 30.65456,0 L 247.36974,9.9269375 M 24.719341,5.0034366 H 234.28067 c 10.92261,0 19.7159,8.7503134 19.7159,19.6195374 V 170.37703 c 0,10.86923 -8.79329,19.61954 -19.7159,19.61954 H 24.719341 c -10.922611,0 -19.7159044,-8.75031 -19.7159044,-19.61954 V 24.622974 C 5.0034366,13.75375 13.79673,5.0034366 24.719341,5.0034366 Z M 11.630267,185.07307 99.385463,97.500003 m 60.229077,0 87.7552,87.573067 m -222.650399,4.9235 H 234.28067 c 10.92261,0 19.7159,-8.75031 19.7159,-19.61954 V 24.622976 c 0,-10.86923 -8.79329,-19.61954 -19.7159,-19.61954 H 24.719341 c -10.922611,0 -19.7159044,8.75031 -19.7159044,19.61954 V 170.37703 c 0,10.86923 8.7932934,19.61954 19.7159044,19.61954 z"
       sodipodi:nodetypes="cccssssssssssccccsssssssss" />
  </g>
</svg>
