<svg width="1208" height="1000" viewBox="0 0 1208 1000" fill="none" xmlns="http://www.w3.org/2000/svg">
<path d="M523.741 507.34C612.399 507.34 684.271 435.468 684.271 346.81C684.271 258.152 612.399 186.28 523.741 186.28C435.083 186.28 363.211 258.152 363.211 346.81C363.211 435.468 435.083 507.34 523.741 507.34Z" fill="#F05A2C"/>
<path d="M429.929 546.55H617.539C723.869 546.55 810.189 632.87 810.189 739.2V803.71C810.189 809.23 805.709 813.71 800.189 813.71H247.279C241.759 813.71 237.279 809.23 237.279 803.71V739.2C237.279 632.87 323.599 546.55 429.929 546.55Z" fill="#F05A2C"/>
<path d="M684.26 507.34C772.919 507.34 844.79 435.468 844.79 346.81C844.79 258.152 772.919 186.28 684.26 186.28C595.602 186.28 523.73 258.152 523.73 346.81C523.73 435.468 595.602 507.34 684.26 507.34Z" fill="url(#paint0_linear_6587_7397)"/>
<path d="M590.461 546.55H778.071C884.401 546.55 970.721 632.87 970.721 739.2V803.71C970.721 809.23 966.241 813.71 960.721 813.71H407.801C402.281 813.71 397.801 809.23 397.801 803.71V739.2C397.801 632.87 484.121 546.55 590.451 546.55H590.461Z" fill="url(#paint1_linear_6587_7397)"/>
<defs>
<linearGradient id="paint0_linear_6587_7397" x1="523.74" y1="346.81" x2="844.79" y2="346.81" gradientUnits="userSpaceOnUse">
<stop stop-color="#F99C08" stop-opacity="0.5"/>
<stop offset="1" stop-color="#F99C08"/>
</linearGradient>
<linearGradient id="paint1_linear_6587_7397" x1="407.251" y1="680.13" x2="957.971" y2="680.13" gradientUnits="userSpaceOnUse">
<stop stop-color="#F99C08" stop-opacity="0.5"/>
<stop offset="1" stop-color="#F99C08"/>
</linearGradient>
</defs>
</svg>
