<?xml version="1.0" encoding="UTF-8" standalone="no"?>
<!-- Created with Inkscape (http://www.inkscape.org/) -->

<svg
   width="1200"
   height="1200"
   viewBox="0 0 1200 1200"
   version="1.1"
   id="svg1"
   xml:space="preserve"
   xmlns:inkscape="http://www.inkscape.org/namespaces/inkscape"
   xmlns:sodipodi="http://sodipodi.sourceforge.net/DTD/sodipodi-0.dtd"
   xmlns="http://www.w3.org/2000/svg"
   xmlns:svg="http://www.w3.org/2000/svg"><sodipodi:namedview
     id="namedview1"
     pagecolor="#505050"
     bordercolor="#ffffff"
     borderopacity="1"
     inkscape:showpageshadow="0"
     inkscape:pageopacity="0"
     inkscape:pagecheckerboard="1"
     inkscape:deskcolor="#505050"
     inkscape:document-units="px"
     showgrid="false"><inkscape:page
       x="0"
       y="0"
       width="1200"
       height="1200"
       id="page2"
       margin="0"
       bleed="0" /></sodipodi:namedview><defs
     id="defs1" /><g
     inkscape:label="Layer 1"
     inkscape:groupmode="layer"
     id="layer1"><rect
       style="fill:#ffffff;fill-opacity:1;stroke:#437c7f;stroke-width:0;stroke-linecap:round;stroke-linejoin:round;stroke-dasharray:none;stroke-opacity:1"
       id="rect1"
       width="1200"
       height="1200"
       x="0"
       y="0"
       inkscape:label="bg" /><path
       id="path1"
       style="display:inline;fill:#607d8b;fill-opacity:1;stroke:#607d8b;stroke-width:41.3718;stroke-linecap:round;stroke-linejoin:round;stroke-dasharray:none;stroke-opacity:1"
       inkscape:label="gear"
       d="m 516.91438,130.4086 c -34.92849,97.48515 -65.4225,183.26448 -66.031,196.30143 -11.417,-6.61564 -101.89575,-27.77996 -204.1533,-51.47807 -29.80887,51.76433 -63.77523,109.68043 -94.95325,161.92695 66.96035,78.99151 126.00168,148.29058 136.98781,155.33609 -11.43778,6.57954 -75.00376,74.35464 -146.65574,151.06328 29.92478,51.69733 63.09573,110.0678 92.75353,163.19202 101.88884,-18.49357 191.42415,-34.97381 203.01881,-40.96544 -0.0208,13.19523 26.89194,102.13463 57.49756,202.54134 59.73365,-0.067 126.87098,0.3875 187.7068,1.2652 34.92848,-97.48506 65.42247,-183.26443 66.03094,-196.30149 11.41706,6.61575 101.89577,27.77997 204.15335,51.47807 29.80882,-51.76432 63.77521,-109.68045 94.95321,-161.92686 -66.96033,-78.99155 -126.00159,-148.29061 -136.9878,-155.33611 11.43775,-6.57955 75.0039,-74.35463 146.6558,-151.06325 -29.9248,-51.69739 -63.09569,-110.06787 -92.75363,-163.19206 -101.88885,18.49362 -191.42415,34.97382 -203.01866,40.96533 0.0202,-13.19523 -26.89202,-102.13461 -57.49763,-202.54131 -59.73368,0.0668 -126.87098,-0.38744 -187.7068,-1.26512 z" /><circle
       style="fill:#607d8b;fill-opacity:1;stroke:#607d8b;stroke-width:19.0362;stroke-linecap:round;stroke-linejoin:round;stroke-dasharray:none;stroke-opacity:1"
       id="path23"
       cx="600"
       cy="600"
       inkscape:label="big-circle"
       r="384.57022" /><circle
       style="fill:#ffffff;fill-opacity:1;stroke:#465a65;stroke-width:140;stroke-linecap:round;stroke-linejoin:round;stroke-dasharray:none;stroke-opacity:1"
       id="circle23"
       cx="600"
       cy="600"
       inkscape:label="small-circle"
       r="180" /></g></svg>
