<?xml version="1.0" encoding="UTF-8" standalone="no"?>
<!-- Created with Inkscape (http://www.inkscape.org/) -->

<svg
   width="740"
   height="555"
   viewBox="0 0 195.79166 146.84375"
   version="1.1"
   id="svg1"
   xml:space="preserve"
   inkscape:version="1.4.2 (2aeb623e1d, 2025-05-12)"
   sodipodi:docname="object-make-link.svg"
   xmlns:inkscape="http://www.inkscape.org/namespaces/inkscape"
   xmlns:sodipodi="http://sodipodi.sourceforge.net/DTD/sodipodi-0.dtd"
   xmlns:xlink="http://www.w3.org/1999/xlink"
   xmlns="http://www.w3.org/2000/svg"
   xmlns:svg="http://www.w3.org/2000/svg"><sodipodi:namedview
     id="namedview1"
     pagecolor="#505050"
     bordercolor="#ffffff"
     borderopacity="1"
     inkscape:showpageshadow="0"
     inkscape:pageopacity="0"
     inkscape:pagecheckerboard="1"
     inkscape:deskcolor="#505050"
     inkscape:document-units="px"
     inkscape:zoom="0.71535497"
     inkscape:cx="398.40361"
     inkscape:cy="276.08671"
     inkscape:window-width="1920"
     inkscape:window-height="1014"
     inkscape:window-x="0"
     inkscape:window-y="0"
     inkscape:window-maximized="1"
     inkscape:current-layer="layer1" /><defs
     id="defs1" /><g
     inkscape:label="Layer 1"
     inkscape:groupmode="layer"
     id="layer1"><image
       width="195.79166"
       height="146.84375"
       preserveAspectRatio="none"
       xlink:href="../e72c08e7/object-ref.avif"
       id="image1"
       x="3.4195964e-06"
       y="-1.25e-06" /><path
       style="fill:#ffffff;fill-opacity:0;stroke:#000000;stroke-width:0.264583;stroke-linecap:square;stroke-dasharray:none;stroke-opacity:1;paint-order:markers stroke fill"
       d="M 2.5890411,20.804795 C 0.67714578,14.312172 7.869519,7.1530037 14.14726,4.6232876 21.115078,1.8154939 36.878697,2.3753684 39.390411,6.6575341 c 2.375052,4.0491729 -5.051833,8.6798229 -6.56507,12.7602739 -0.985157,2.65648 -1.963672,4.65654 -1.941778,7.489727 0.04144,5.363011 -3.972422,8.568219 -7.85959,9.431507 -2.921096,0.648737 -6.160261,-0.819353 -8.044521,-3.143838 -1.892637,-2.33482 -0.486154,-7.125568 -3.051371,-8.691779 -2.3540241,-1.437267 -8.4331823,-0.62242 -9.3390399,-3.69863 z"
       id="path1"
       sodipodi:nodetypes="sssssssss"
       inkscape:label="helmet" /><path
       style="fill:#ffffff;fill-opacity:0;stroke:#000000;stroke-width:0.264583;stroke-linecap:square;stroke-dasharray:none;stroke-opacity:1;paint-order:markers stroke fill"
       d="m 44.291096,30.69863 c -0.0746,-2.439247 4.614639,-1.487278 5.825343,-3.606166 2.311437,-4.045311 -0.375535,-8.868969 -10e-7,-13.777396 0.37904,-4.9542591 4.663943,-11.4056084 9.33904,-11.1883557 4.532291,0.2106164 5.97196,6.7619635 7.304796,11.2808217 1.177171,3.99109 -1.776994,8.765395 0.09246,12.482877 0.98871,1.966089 6.308755,2.035621 5.270548,3.976028 -2.706257,5.05799 -7.865488,5.823217 -14.14726,7.027397 C 53.05826,37.836543 44.444154,35.703594 44.291096,30.69863 Z"
       id="path2"
       sodipodi:nodetypes="sssssssss"
       inkscape:label="candle" /><path
       style="fill:#ffffff;fill-opacity:0;stroke:#000000;stroke-width:0.264583;stroke-linecap:square;stroke-dasharray:none;stroke-opacity:1;paint-order:markers stroke fill"
       d="M 75.975233,28.507058 C 76.790074,22.030207 78.776954,15.298689 84.21351,5.3614191 86.954438,0.35138175 97.442319,1.1821715 102.12849,4.446055 c 3.98201,2.773439 7.73914,9.041007 5.75373,13.468931 -4.15158,9.258975 -12.718391,18.546879 -15.691965,18.961116 -2.878095,0.400937 -5.323121,-2.895087 -6.558208,-3.790057 -0.897034,-0.65001 9.227484,-12.065741 11.818862,-18.638365 1.20602,-3.05888 -1.945099,-4.10981 -4.199963,-3.625173 -3.653761,0.785301 -6.468578,21.424616 -9.79725,21.231212 -3.768289,-0.218946 -7.688172,-1.879771 -7.478463,-3.546661 z"
       id="path3"
       sodipodi:nodetypes="ssssssssss"
       onclick=""
       inkscape:label="magnet" /><path
       style="fill:#ffffff;fill-opacity:0;stroke:#000000;stroke-width:0.264583;stroke-linecap:square;stroke-dasharray:none;stroke-opacity:1;paint-order:markers stroke fill"
       d="m 111.8052,13.076631 c 3.61574,-8.385722 17.93662,-9.829125 27.06863,-9.8074729 8.77508,0.020806 19.82971,2.6620744 24.32254,10.1997729 2.92596,4.908926 -0.20923,11.217601 -2.22303,16.999621 -2.54047,7.294207 -14.50767,6.394113 -22.23027,6.538317 -8.49833,0.158689 -22.91111,2.029442 -24.71484,-6.276784 -1.00622,-4.63368 -4.39117,-12.625032 -2.22303,-17.653454 z"
       id="path4"
       sodipodi:nodetypes="sssssss"
       inkscape:label="fruit" /><path
       style="fill:#ffffff;fill-opacity:0;stroke:#000000;stroke-width:0.264583;stroke-linecap:square;stroke-dasharray:none;stroke-opacity:1;paint-order:markers stroke fill"
       d="m 168.68855,32.953113 c -0.3387,-1.98251 3.36198,-3.250882 3.00763,-5.230654 -0.35989,-2.010682 -5.57739,-2.074798 -4.70759,-3.922989 3.86601,-8.214653 7.45673,-21.3625111 12.0305,-22.4918068 3.92601,-0.96935973 15.58031,3.6453622 15.82273,7.1921477 0.58491,8.5577601 -4.153,14.9354611 -9.54594,23.5379391 -1.28596,2.051279 -4.85575,-2.69829 -7.06138,-1.699964 -2.55786,1.157755 -1.16473,6.929244 -3.92299,7.45368 -2.42916,0.461864 -5.20655,-2.400988 -5.62296,-4.838353 z"
       id="path5"
       sodipodi:nodetypes="sssssssss"
       inkscape:label="icescream" /><path
       style="fill:#ffffff;fill-opacity:0;stroke:#000000;stroke-width:0.264583;stroke-linecap:square;stroke-dasharray:none;stroke-opacity:1;paint-order:markers stroke fill"
       d="M 4.5308218,68.886985 C 4.8296608,65.14355 17.835015,66.252111 15.071918,63.708904 12.537145,61.37585 3.725198,61.404002 2.3116438,56.773971 0.38346323,50.458305 6.2108121,40.793429 12.390411,38.465753 c 8.348809,-3.144756 19.163261,1.43888 22.099313,10.633562 1.534092,4.804233 -9.699945,14.9021 -5.363011,17.476027 4.121993,2.446361 3.913769,4.920008 0.832189,6.28767 -5.087461,2.25791 -7.574454,0.94413 -13.592464,0.647261 -4.398735,-0.21699 -12.18608,-0.23317 -11.8356162,-4.623288 z"
       id="path6"
       sodipodi:nodetypes="sssssssss"
       inkscape:label="lemon-tree" /><path
       style="fill:#ffffff;fill-opacity:0;stroke:#000000;stroke-width:0.264583;stroke-linecap:square;stroke-dasharray:none;stroke-opacity:1;paint-order:markers stroke fill"
       d="m 40.03767,73.78767 c -3.300785,0.07077 1.49088,-10.283405 -0.462327,-12.945204 -1.357818,-1.850413 -3.175586,0.08009 -4.068495,-2.034246 -1.610775,-3.814183 2.748085,-10.360109 5.825344,-13.130139 4.842843,-4.359341 10.595674,-6.854345 17.106164,-7.119861 5.463461,-0.222815 11.790587,3.109306 16.366438,6.102739 2.373521,1.552712 3.556735,4.564211 3.421233,7.397258 -0.105292,2.201413 -4.637973,2.360701 -4.253426,4.530823 0.833511,4.703762 6.587736,11.569264 2.589042,14.886986 -4.430678,3.67614 -9.638662,2.275961 -14.979452,2.219179 -7.419986,-0.07889 -13.770974,-0.0742 -21.544521,0.09247 z"
       id="path7"
       sodipodi:nodetypes="sssssssssss"
       inkscape:label="tomato" /><path
       style="fill:#ffffff;fill-opacity:0;stroke:#000000;stroke-width:0.264583;stroke-linecap:square;stroke-dasharray:none;stroke-opacity:1;paint-order:markers stroke fill"
       d="m 79.767455,56.621817 c -1.426867,-3.535379 -1.32261,-8.972404 1.176898,-11.376669 2.769832,-2.664288 22.305777,-6.400916 32.299277,-6.799849 3.3835,-0.135067 16.2823,10.028586 16.60733,13.076632 0.30617,2.871191 -0.2561,11.151321 -1.43843,13.338165 -1.13922,2.107094 -35.296051,9.967977 -38.053002,8.49981 C 87.634549,71.908765 80.884,59.388304 79.767455,56.621817 Z"
       id="path8"
       sodipodi:nodetypes="sssssss"
       inkscape:label="sponge" /><path
       style="fill:#ffffff;fill-opacity:0;stroke:#000000;stroke-width:0.264583;stroke-linecap:square;stroke-dasharray:none;stroke-opacity:1;paint-order:markers stroke fill"
       d="m 131.55092,66.690824 c -2.82231,-4.232521 0.63353,-8.522087 2.61533,-13.207398 1.87573,-4.434548 -3.71997,-7.66648 4.18452,-13.861231 5.95907,-4.670126 22.48939,1.741757 25.6302,8.630578 1.68256,3.690398 -3.25492,9.028306 -5.23066,11.376668 -3.49153,4.150039 -3.49837,14.010309 -6.79984,13.5997 -7.24379,-0.900919 -18.82741,-4.180622 -20.39955,-6.538317 z"
       id="path9"
       sodipodi:nodetypes="sssssss"
       inkscape:label="bread" /><path
       style="fill:#ffffff;fill-opacity:0;stroke:#000000;stroke-width:0.264583;stroke-linecap:square;stroke-dasharray:none;stroke-opacity:1;paint-order:markers stroke fill"
       d="m 165.15786,69.436916 c -1.74753,-1.327724 0.34596,-23.784238 0.7846,-26.807096 0.74081,-5.105138 26.54099,-5.380964 27.19939,1.307663 0.40542,4.118529 1.96791,25.600201 0.3923,26.284031 -11.89075,5.160714 -22.40924,3.748986 -28.37629,-0.784598 z"
       id="path10"
       sodipodi:nodetypes="sssss"
       inkscape:label="blue" /><path
       style="fill:#ffffff;fill-opacity:0;stroke:#000000;stroke-width:0.264583;stroke-linecap:square;stroke-dasharray:none;stroke-opacity:1;paint-order:markers stroke fill"
       d="M 3.6986301,107.63014 C 0.84066382,103.09647 2.3783723,80.470323 3.3287671,76.006848 4.0757866,72.498514 15.686621,75.061961 15.719179,76.746575 c 0.08232,4.259409 2.855906,30.398715 -1.479454,31.068495 -2.778293,0.42922 -8.6013149,2.8922 -10.5410949,-0.18493 z"
       id="path11"
       sodipodi:nodetypes="sssss"
       inkscape:label="bottle" /><path
       style="fill:#ffffff;fill-opacity:0;stroke:#000000;stroke-width:0.264583;stroke-linecap:square;stroke-dasharray:none;stroke-opacity:1;paint-order:markers stroke fill"
       d="m 18.493151,100.04794 c 1.96616,-1.89878 16.624372,-7.44974 22.942723,-13.78204 3.129179,-3.136087 -1.901869,-5.399989 6.504332,-10.692373 3.993355,-2.514141 15.787885,2.52694 11.377935,6.524844 5.098795,1.234589 6.862065,11.592981 -1.516955,14.624654 -9.300239,3.364985 -8.930275,-1.954674 -12.64617,-0.939725 -10.167741,2.777188 -23.625971,14.65444 -28.718548,11.63755 -1.766262,-1.04635 -0.108823,-5.28162 2.056683,-7.37291 z"
       id="path12"
       sodipodi:nodetypes="ssscssss"
       inkscape:label="scisors" /><path
       style="fill:#ffffff;fill-opacity:0;stroke:#000000;stroke-width:0.264583;stroke-linecap:square;stroke-dasharray:none;stroke-opacity:1;paint-order:markers stroke fill"
       d="m 63.616437,98.38356 c -0.173777,-1.82197 -0.0072,-12.943482 0.369864,-14.517121 2.683211,-11.198667 35.164944,-10.951461 37.078769,-1.479452 1.18424,5.861089 2.08042,12.29894 0.0925,17.938353 -4.255823,12.07311 -36.167927,12.45568 -37.541133,-1.94178 z"
       id="path13"
       sodipodi:nodetypes="sssss"
       inkscape:label="coil" /><path
       style="fill:#ffffff;fill-opacity:0;stroke:#000000;stroke-width:0.264583;stroke-linecap:square;stroke-dasharray:none;stroke-opacity:1;paint-order:markers stroke fill"
       d="m 102.39003,98.597806 c -0.65801,-8.205691 10.56274,-9.541543 14.90736,-11.37667 2.07035,-3.860979 1.42775,-10.656793 5.62295,-11.638203 4.65223,-1.088327 12.22301,-0.836932 16.47656,0 4.26596,0.839372 2.80158,8.460981 5.62295,11.76897 5.06073,0.369178 14.63819,4.216363 14.77659,10.199772 0.35728,15.446295 -56.41013,13.470225 -57.40641,1.046131 z"
       id="path14"
       sodipodi:nodetypes="scsscss"
       inkscape:label="hat" /><path
       style="fill:#ffffff;fill-opacity:0;stroke:#000000;stroke-width:0.264583;stroke-linecap:square;stroke-dasharray:none;stroke-opacity:1;paint-order:markers stroke fill"
       d="m 158.61954,105.98611 c 5.09198,-16.02968 1.94007,-19.736084 3.26916,-28.637831 0.39136,-2.621192 10.30782,-3.036202 15.23428,-3.073009 3.65856,-0.02733 11.58271,-1.604278 12.0305,2.026879 0.68714,5.572129 5.54619,19.331938 4.05376,28.245521 -0.43436,2.59421 -11.74966,4.68002 -16.01887,4.70759 -6.90022,0.0446 -20.02876,1.32675 -18.56883,-3.26915 z"
       id="path15"
       sodipodi:nodetypes="sssssss"
       inkscape:label="stool" /><path
       style="fill:#ffffff;fill-opacity:0;stroke:#000000;stroke-width:0.264583;stroke-linecap:square;stroke-dasharray:none;stroke-opacity:1;paint-order:markers stroke fill"
       d="m 2.3928916,137.99064 c 0.2161257,-2.27391 -0.3208324,-3.6591 0.2839685,-5.86173 2.3178006,-8.44121 6.5789271,-17.21572 12.9750099,-21.8873 3.509039,-2.56294 11.843919,2.56199 11.095889,6.84247 -1.907964,10.91801 -8.112086,22.4445 -15.799627,27.32884 -3.5704248,2.2685 -9.2670085,1.06639 -8.5552404,-6.42228 z"
       id="path16"
       sodipodi:nodetypes="ssssss"
       inkscape:label="oil" /><path
       style="fill:#ffffff;fill-opacity:0;stroke:#000000;stroke-width:0.264583;stroke-linecap:square;stroke-dasharray:none;stroke-opacity:1;paint-order:markers stroke fill"
       d="m 25.150685,136.66438 c -4.186893,-7.3516 1.426829,-18.88843 8.136986,-24.04109 7.496447,-5.75644 19.879352,-6.1526 28.29452,-1.84932 7.644457,3.90916 14.929266,13.32657 13.684932,21.82192 -0.867314,5.92135 -7.709575,10.32379 -13.500002,11.83561 -12.072364,3.15196 -30.441678,3.07489 -36.616436,-7.76712 z"
       id="path17"
       sodipodi:nodetypes="ssssss"
       inkscape:label="car" /><path
       style="fill:#ffffff;fill-opacity:0;stroke:#000000;stroke-width:0.264583;stroke-linecap:square;stroke-dasharray:none;stroke-opacity:1;paint-order:markers stroke fill"
       d="m 76.006848,127.60274 c 1.384248,-6.54057 4.72689,-14.2886 10.910959,-16.82877 7.180552,-2.94949 16.379043,0.55307 22.746573,4.99315 6.66265,4.64587 15.61274,12.7936 13.13014,20.5274 -2.53657,7.90191 -14.83937,8.6429 -23.116439,9.24657 -7.396341,0.53944 -16.598297,0.26329 -21.636987,-5.17808 -2.926423,-3.16029 -2.926055,-8.54647 -2.034246,-12.76027 z"
       id="path18"
       sodipodi:nodetypes="sssssss"
       inkscape:label="orange" /><path
       style="fill:#ffffff;fill-opacity:0;stroke:#000000;stroke-width:0.264583;stroke-linecap:square;stroke-dasharray:none;stroke-opacity:1;paint-order:markers stroke fill"
       d="m 124.82876,130.37671 c 1.96695,-5.56174 9.64305,-15.62694 16.82877,-19.41781 10.16094,-5.36047 11.67981,2.33774 17.19863,3.88357 6.32252,1.77094 11.95318,2.56131 18.49315,3.14383 6.14499,0.54733 13.80506,-2.78846 16.82877,2.58904 4.96909,8.83726 -7.60076,15.58854 -14.0548,22.19178 -5.30174,5.4243 -16.27165,-0.2889 -23.85616,-0.36986 -8.49519,-0.0907 -17.06551,4.01724 -25.33561,2.77397 -5.5325,-0.83172 -7.96812,-9.51999 -6.10275,-14.79452 z"
       id="path19"
       sodipodi:nodetypes="sssssssss"
       inkscape:label="mat" /></g></svg>
