<svg xmlns="http://www.w3.org/2000/svg" width="430" height="430" style="width:100%;height:100%;transform:translate3d(0,0,0);content-visibility:visible" viewBox="0 0 430 430"><defs><clipPath id="e"><path d="M0 0h430v430H0z"/></clipPath><clipPath id="n"><path d="M0 0h430v430H0z"/></clipPath><clipPath id="i"><path d="M0 0h430v430H0z"/></clipPath><clipPath id="k"><path d="M0 0h430v430H0z"/></clipPath><clipPath id="f"><path d="M0 0h430v430H0z"/></clipPath><clipPath id="g"><path d="M0 0h430v430H0z"/></clipPath><filter id="a" width="100%" height="100%" x="0%" y="0%" filterUnits="objectBoundingBox"><feComponentTransfer in="SourceGraphic"><feFuncA tableValues="1.0 0.0" type="table"/></feComponentTransfer></filter><filter id="c" width="100%" height="100%" x="0%" y="0%" filterUnits="objectBoundingBox"><feComponentTransfer in="SourceGraphic"><feFuncA tableValues="1.0 0.0" type="table"/></feComponentTransfer></filter><mask id="l" mask-type="alpha"><g filter="url(#a)"><path fill="#fff" d="M0 0h430v430H0z" opacity="0"/><use xmlns:ns1="http://www.w3.org/1999/xlink" ns1:href="#b"/></g></mask><mask id="h" mask-type="alpha"><g filter="url(#c)"><path fill="#fff" d="M0 0h430v430H0z" opacity="0"/><use xmlns:ns2="http://www.w3.org/1999/xlink" ns2:href="#d"/></g></mask><g id="b" style="display:none"><path/><path/><path/><path/><path/><path/></g><g id="d" style="display:none"><path/><path/><path/><path/><path/><path/></g></defs><g fill="none" clip-path="url(#e)"><g clip-path="url(#f)" style="display:none"><g clip-path="url(#g)" mask="url(#h)" style="display:none"><path class="secondary" style="display:none"/><path class="secondary" style="display:none"/><path class="primary" style="display:none"/><path class="primary" style="display:none"/><path class="primary" style="display:none"/><path class="secondary" style="display:none"/></g><path class="secondary" style="display:none"/><path class="secondary" style="display:none"/><path class="primary" style="display:none"/><path class="primary" style="display:none"/><path class="primary" style="display:none"/><path class="secondary" style="display:none"/><path class="secondary" style="display:none"/><path class="secondary" style="display:none"/><path class="secondary" style="display:none"/><path class="secondary" style="display:none"/><path class="secondary" style="display:none"/><path class="secondary" style="display:none"/><path class="secondary" style="display:none"/><path class="secondary" style="display:none"/><path class="secondary" style="display:none"/><path class="secondary" style="display:none"/><path class="secondary" style="display:none"/><path class="secondary" style="display:none"/><path class="secondary" style="display:none"/><path class="secondary" style="display:none"/><path class="secondary" style="display:none"/><g style="display:none"><path class="secondary"/><path class="secondary"/><path class="secondary"/><path class="secondary"/><path class="secondary"/><path class="secondary"/></g></g><g clip-path="url(#i)" style="display:block"><g clip-path="url(#k)" mask="url(#l)" style="display:none"><path stroke="#08A88A" stroke-linecap="round" stroke-linejoin="round" stroke-width="12" d="M-25.343 25.335c13.999 13.999 36.687 13.999 50.686 0s13.999-36.688 0-50.674c-13.999-13.999-36.687-13.986-50.686 0s-13.999 36.675 0 50.674" class="secondary" style="display:block" transform="rotate(-45 358.294 -156.538)"/><path stroke="#08A88A" stroke-linecap="round" stroke-linejoin="round" stroke-width="12" d="m-24.557-28.574-2.618 4.565A40.493 40.493 0 0 0 23.56 26.726l5.463-1.52" class="secondary" style="display:block" transform="rotate(-45 523.81 -89.551)"/><path stroke="#121331" stroke-linecap="round" stroke-linejoin="round" stroke-width="12" d="M55.148-71.655S39.134-57.293.698-57.293s-55.837-15.354-55.837-15.354M68.524 135.587c-1.804 9.652-10.273 16.622-20.095 16.622h-96.858c-9.822 0-18.281-6.962-20.094-16.622-4.281-22.852-6.58-53.663-6.58-96.576 0-40.497 6.644-78.491 19.404-111.307 12.69-32.635 31.429-60.15 55.699-79.913 24.336 19.818 43.109 47.422 55.799 80.165C68.495-39.286 75.103-1.384 75.103 39.011c0 42.93-2.298 73.724-6.579 96.576" class="primary" style="display:block" transform="translate(215.625 188.879)"/><path stroke="#121331" stroke-linecap="round" stroke-linejoin="round" stroke-width="12" d="M-37.535-8.496s26.517 26.517 21.701 73.951C61.241-11.62 32.154-65.455 32.154-65.455" class="primary" style="display:block" transform="rotate(-45 534.769 -224.037)"/><path stroke="#121331" stroke-linecap="round" stroke-linejoin="round" stroke-width="12" d="M10.195 39.234s-26.411-26.411-73.759-21.509C13.511-59.35 67.18-30.429 67.18-30.429" class="primary" style="display:block" transform="rotate(-45 433.769 19.799)"/><path class="secondary" style="display:none"/></g><path class="secondary" style="display:none"/><path class="secondary" style="display:none"/><path class="primary" style="display:none"/><path class="primary" style="display:none"/><path class="primary" style="display:none"/><path class="secondary" style="display:none"/><path class="secondary" style="display:none"/><path class="secondary" style="display:none"/><path class="secondary" style="display:none"/><path class="secondary" style="display:none"/><path class="secondary" style="display:none"/><path class="secondary" style="display:none"/><path class="secondary" style="display:none"/><path class="secondary" style="display:none"/><path class="secondary" style="display:none"/><path class="secondary" style="display:none"/><path class="secondary" style="display:none"/><path class="secondary" style="display:none"/><g style="display:none"><path class="secondary"/><path class="secondary"/><path class="secondary"/><path class="secondary"/><path class="secondary"/><path class="secondary"/></g><g stroke-linecap="round" stroke-linejoin="round" stroke-width="12" style="display:block"><path stroke="#08A88A" d="M215.625 243.338c19.798 0 35.84-16.043 35.84-35.84s-16.043-35.842-35.831-35.833c-19.798 0-35.831 16.052-35.84 35.84-.01 19.79 16.034 35.833 35.831 35.833m-36.451 97.982 1.376 5.08a40.493 40.493 0 0 0 71.75 0l2.789-4.938" class="secondary"/><path stroke="#121331" d="M270.774 117.224s-16.014 14.362-54.45 14.362-55.837-15.354-55.837-15.354M284.15 324.466c-1.804 9.652-10.273 16.622-20.095 16.622h-96.858c-9.822 0-18.281-6.962-20.094-16.622-4.281-22.852-6.58-53.663-6.58-96.576 0-40.497 6.644-78.491 19.404-111.307 12.69-32.635 31.429-60.15 55.699-79.913 24.336 19.818 43.109 47.422 55.799 80.165 12.696 32.758 19.304 70.66 19.304 111.055 0 42.93-2.298 73.724-6.579 96.576" class="primary"/><path stroke="#121331" d="M282.5 333.054s37.5 0 67.635 36.946c0-109-58.634-126.5-58.634-126.5M148 333.054s-37.351 0-67.365 36.946c0-109 58.4-126.5 58.4-126.5" class="primary"/></g></g><g clip-path="url(#n)" style="display:none"><path class="secondary" style="display:none"/><path class="secondary" style="display:none"/><path class="primary" style="display:none"/><path class="primary" style="display:none"/><path class="primary" style="display:none"/></g></g></svg>