<?xml version="1.0" encoding="UTF-8" standalone="no"?>
<!-- Created with Inkscape (http://www.inkscape.org/) -->

<svg
   width="1365"
   height="1365"
   viewBox="0 0 1365 1365"
   version="1.1"
   id="svg1"
   inkscape:export-filename="crown-make.svg"
   inkscape:export-xdpi="96"
   inkscape:export-ydpi="96"
   xmlns:inkscape="http://www.inkscape.org/namespaces/inkscape"
   xmlns:sodipodi="http://sodipodi.sourceforge.net/DTD/sodipodi-0.dtd"
   xmlns="http://www.w3.org/2000/svg"
   xmlns:svg="http://www.w3.org/2000/svg">
  <sodipodi:namedview
     id="namedview1"
     pagecolor="#505050"
     bordercolor="#ffffff"
     borderopacity="1"
     inkscape:showpageshadow="0"
     inkscape:pageopacity="0"
     inkscape:pagecheckerboard="1"
     inkscape:deskcolor="#505050"
     inkscape:document-units="px"
     showguides="true">
    <sodipodi:guide
       position="682.5,682.5"
       orientation="1,0"
       id="guide1"
       inkscape:locked="false" />
    <inkscape:page
       x="0"
       y="0"
       width="1365"
       height="1365"
       id="page2"
       margin="0"
       bleed="0" />
  </sodipodi:namedview>
  <defs
     id="defs1">
    <inkscape:path-effect
       effect="mirror_symmetry"
       start_point="638.01886,557.42417"
       end_point="638.01886,864.98394"
       center_point="638.01886,711.20405"
       id="path-effect13"
       is_visible="true"
       lpeversion="1.2"
       lpesatellites=""
       mode="free"
       discard_orig_path="false"
       fuse_paths="false"
       oposite_fuse="false"
       split_items="false"
       split_open="false"
       link_styles="false" />
    <inkscape:path-effect
       effect="fillet_chamfer"
       id="path-effect12"
       is_visible="true"
       lpeversion="1"
       nodesatellites_param="F,0,0,1,0,0,0,1 @ F,0,0,1,0,0,0,1 @ F,0,0,1,0,28.118563,0,1 @ F,0,1,1,0,28.118563,0,1"
       radius="0"
       unit="px"
       method="auto"
       mode="F"
       chamfer_steps="1"
       flexible="false"
       use_knot_distance="true"
       apply_no_radius="true"
       apply_with_radius="true"
       only_selected="false"
       hide_knots="false" />
    <inkscape:path-effect
       effect="mirror_symmetry"
       start_point="682.5,306.38674"
       end_point="682.5,580.61502"
       center_point="682.5,443.50088"
       id="path-effect10"
       is_visible="true"
       lpeversion="1.2"
       lpesatellites=""
       mode="free"
       discard_orig_path="false"
       fuse_paths="true"
       oposite_fuse="false"
       split_items="false"
       split_open="false"
       link_styles="false" />
    <inkscape:path-effect
       effect="copy_rotate"
       starting_point="658.08624,538.61189"
       origin="558.08624,538.61189"
       id="path-effect9"
       is_visible="true"
       lpeversion="1.2"
       lpesatellites=""
       method="normal"
       num_copies="2"
       starting_angle="0"
       rotation_angle="120"
       gap="-0.01"
       copies_to_360="true"
       mirror_copies="false"
       split_items="false"
       link_styles="false" />
  </defs>
  <g
     inkscape:label="Layer 1"
     inkscape:groupmode="layer"
     id="layer1">
    <path
       style="fill:#003932;fill-opacity:1;stroke:#9aa0a6;stroke-width:0;stroke-dasharray:none"
       id="path3"
       d="m 682.5,307.78516 c -12.14391,-0.0114 -24.45323,3.07532 -35.72656,9.58398 -34.17585,19.73144 -45.88574,63.43156 -26.1543,97.60742 13.22278,22.90253 37.20969,35.71717 61.88086,35.74024 24.67117,-0.0231 48.65808,-12.83771 61.88086,-35.74024 19.73144,-34.17586 8.02155,-77.87598 -26.1543,-97.60742 C 706.95323,310.86048 694.64391,307.7738 682.5,307.78516 Z M 322.14137,572.42801 c -34.17586,-19.73145 -45.88538,-63.43195 -26.15393,-97.6078 19.73144,-34.17586 63.43194,-45.88538 97.6078,-26.15394 34.17585,19.73144 45.88536,63.43194 26.15392,97.6078 -19.73144,34.17585 -63.43194,45.88537 -97.60779,26.15394 z m 720.71723,0 c 34.1759,-19.73145 45.8854,-63.43195 26.154,-97.6078 -19.7315,-34.17586 -63.432,-45.88538 -97.60784,-26.15394 -34.17585,19.73144 -45.88536,63.43194 -26.15392,97.6078 19.73144,34.17585 63.43196,45.88537 97.60776,26.15394 z"
       inkscape:path-effect="#path-effect9;#path-effect10"
       inkscape:original-d="m 646.77306,317.36958 c 34.17586,-19.73144 77.87636,-8.02193 97.6078,26.15393 19.73144,34.17586 8.02193,77.87636 -26.15393,97.6078 -34.17585,19.73144 -77.87635,8.02192 -97.60779,-26.15393 -19.73144,-34.17586 -8.02193,-77.87636 26.15392,-97.6078 z" />
    <path
       id="rect10"
       d="m 482.59924,912.83356 h 399.80201 l 0,40.3789 a 28.118563,28.118563 135 0 1 -28.11856,28.11856 l -343.56489,0 a 28.118563,28.118563 45 0 1 -28.11856,-28.11856 z"
       style="fill:#003932;fill-opacity:1;stroke:#9aa0a6;stroke-width:0;stroke-dasharray:none"
       inkscape:path-effect="#path-effect12"
       inkscape:original-d="m 482.59924,912.83356 h 399.80201 v 68.49746 H 482.59924 Z" />
    <path
       id="path12"
       style="fill:#003932;stroke:#9aa0a6;stroke-width:0"
       transform="translate(44.481143,-6.463501)"
       d="m 638.01886,864.91114 -200.5544,0.0728 c 0,0 -9.22251,-74.89167 -20.03833,-112.68556 -10.81583,-37.7939 -45.20067,-112.68557 -45.20067,-112.68557 l 39.386,-12.1187 c 0,0 75.49232,85.18006 123.30327,70.75801 47.81095,-14.42205 70.4565,-140.82795 70.4565,-140.82795 0,0 9.94447,7.18037 15.62486,8.35233 5.68039,1.17195 17.02277,3.45964 17.02277,3.45964 z m 0,0 200.5544,0.0728 c 0,0 9.22251,-74.89167 20.03833,-112.68556 10.81583,-37.7939 45.20067,-112.68557 45.20067,-112.68557 l -39.386,-12.1187 c 0,0 -75.49232,85.18006 -123.30327,70.75801 -47.81095,-14.42205 -70.4565,-140.82795 -70.4565,-140.82795 0,0 -9.94447,7.18037 -15.62486,8.35233 -5.68039,1.17195 -17.02277,3.45964 -17.02277,3.45964 z"
       sodipodi:nodetypes="cczcczczcc"
       inkscape:path-effect="#path-effect13"
       inkscape:original-d="m 638.01886,864.91114 -200.5544,0.0728 c 0,0 -9.22251,-74.89167 -20.03833,-112.68556 -10.81583,-37.7939 -45.20067,-112.68557 -45.20067,-112.68557 l 39.386,-12.1187 c 0,0 75.49232,85.18006 123.30327,70.75801 47.81095,-14.42205 70.4565,-140.82795 70.4565,-140.82795 0,0 9.94447,7.18037 15.62486,8.35233 5.68039,1.17195 17.02277,3.45964 17.02277,3.45964 z" />
  </g>
</svg>
