<?xml version="1.0" standalone="no"?>
<!DOCTYPE svg PUBLIC "-//W3C//DTD SVG 20010904//EN"
 "http://www.w3.org/TR/2001/REC-SVG-20010904/DTD/svg10.dtd">
<svg version="1.0" xmlns="http://www.w3.org/2000/svg"
 width="1024.000000pt" height="1024.000000pt" viewBox="0 0 1024.000000 1024.000000"
 preserveAspectRatio="xMidYMid meet">

<g transform="translate(0.000000,1024.000000) scale(0.100000,-0.100000)"
fill="#003932" stroke="none">
<path d="M5064 7965 c-184 -40 -337 -176 -401 -356 -36 -102 -39 -260 -6 -364
58 -185 217 -338 394 -380 242 -57 492 37 620 232 114 175 128 387 38 572 -44
89 -151 199 -239 245 -118 62 -268 81 -406 51z"/>
<path d="M2338 7106 c-111 -32 -224 -129 -277 -238 -163 -334 86 -705 454
-674 195 16 347 134 405 316 19 60 22 85 18 175 -4 95 -8 111 -41 177 -47 95
-126 176 -214 220 -63 31 -75 33 -183 35 -73 1 -132 -3 -162 -11z"/>
<path d="M7759 7097 c-138 -47 -248 -169 -289 -319 -8 -29 -11 -85 -8 -146 3
-91 7 -106 41 -176 78 -158 216 -253 379 -263 244 -15 436 120 494 348 19 75
14 188 -12 265 -31 93 -115 199 -199 252 -103 65 -279 82 -406 39z"/>
<path d="M4966 6575 c-3 -9 -6 -41 -6 -70 0 -111 -58 -385 -117 -548 -133
-372 -411 -649 -717 -714 -85 -18 -237 -19 -326 -3 -271 49 -561 284 -835 675
-42 61 -80 110 -83 109 -12 -1 -262 -126 -262 -130 0 -3 36 -73 81 -156 195
-365 385 -920 478 -1398 22 -113 43 -225 46 -250 l5 -45 1973 3 1972 3 13 101
c59 471 332 1295 554 1670 38 64 42 88 15 88 -13 0 -149 68 -204 101 l-31 19
-94 -127 c-169 -231 -359 -428 -511 -530 -246 -164 -577 -194 -818 -73 -190
96 -364 280 -479 510 -78 154 -163 483 -186 713 -3 37 -7 67 -9 67 -1 0 -37
-9 -80 -20 -116 -30 -267 -24 -356 14 -11 5 -19 1 -23 -9z"/>
<path d="M3240 3458 c0 -227 1 -244 21 -286 15 -29 37 -54 67 -73 l46 -29
1818 0 c1986 0 1854 -4 1913 59 49 52 53 76 54 334 l1 237 -1960 0 -1960 0 0
-242z"/>
</g>
</svg>
