<?xml version="1.0" encoding="UTF-8" standalone="no"?>
<!-- Created with Inkscape (http://www.inkscape.org/) -->

<svg
   width="600"
   height="600"
   viewBox="0 0 600.00001 600.00001"
   version="1.1"
   id="svg1"
   inkscape:export-filename="firebase-make.svg"
   inkscape:export-xdpi="96"
   inkscape:export-ydpi="96"
   xmlns:inkscape="http://www.inkscape.org/namespaces/inkscape"
   xmlns:sodipodi="http://sodipodi.sourceforge.net/DTD/sodipodi-0.dtd"
   xmlns="http://www.w3.org/2000/svg"
   xmlns:svg="http://www.w3.org/2000/svg">
  <sodipodi:namedview
     id="namedview1"
     pagecolor="#505050"
     bordercolor="#ffffff"
     borderopacity="1"
     inkscape:showpageshadow="0"
     inkscape:pageopacity="0"
     inkscape:pagecheckerboard="1"
     inkscape:deskcolor="#505050"
     inkscape:document-units="px">
    <inkscape:page
       x="0"
       y="0"
       width="600"
       height="600"
       id="page2"
       margin="0"
       bleed="0" />
  </sodipodi:namedview>
  <defs
     id="defs1" />
  <g
     inkscape:label="Layer 1"
     inkscape:groupmode="layer"
     id="layer1">
    <rect
       style="display:inline;opacity:1;fill:#ffffff;fill-opacity:1;stroke:#000000;stroke-width:0;stroke-linecap:round;stroke-linejoin:round;stroke-dasharray:none"
       id="rect8"
       width="600"
       height="600"
       x="0"
       y="0"
       inkscape:label="bg" />
    <path
       d="m 199.18555,248.2207 c -1.29219,155.25305 94.375,241.7461 94.375,241.7461 62.47493,-98.35503 9.4902,-216.14107 -94.375,-241.7461 z"
       style="display:inline;opacity:1;fill:#ff9100;fill-opacity:1;stroke:#000000;stroke-width:0;stroke-linecap:round;stroke-linejoin:round;stroke-dasharray:none"
       id="path3" />
    <path
       d="m 220.42969,554.53125 73.13086,-64.56445 c 0,0 -95.66719,-86.49305 -94.375,-241.7461 -25.73852,-6.3451 -54.60058,-7.02804 -85.60547,-0.35351 -67.109621,126.64201 -4.42762,262.35235 106.84961,306.66406 z"
       style="display:inline;opacity:1;fill:#ffc400;fill-opacity:1;stroke:#000000;stroke-width:0;stroke-linecap:round;stroke-linejoin:round;stroke-dasharray:none"
       id="path7" />
    <path
       d="m 310.87305,29.40625 c 0,0 -110.13915,92.64487 -111.67188,217.32422 -0.006,0.49766 -0.0115,0.99398 -0.0156,1.49023 103.8652,25.60503 156.84993,143.39107 94.375,241.7461 l 96.24227,60.41392 C 488.20579,498.56523 543.85305,367.10432 499.17773,276.77148 453.23866,183.88334 310.87305,29.40625 310.87305,29.40625 Z"
       style="display:inline;opacity:1;fill:#dd2c00;fill-opacity:1;stroke:#000000;stroke-width:0;stroke-linecap:round;stroke-linejoin:round;stroke-dasharray:none"
       id="path5"
       sodipodi:nodetypes="cccccsc" />
    <path
       d="m 389.80284,550.38072 c 0,0 -96.51669,-60.66678 -96.24229,-60.41392 l -73.13086,64.56445 c 65.68985,26.15836 169.37315,-4.15053 169.37315,-4.15053 z"
       style="display:inline;opacity:1;fill:#ff9100;fill-opacity:1;stroke:#000000;stroke-width:0;stroke-linecap:round;stroke-linejoin:round;stroke-dasharray:none"
       id="path6"
       sodipodi:nodetypes="cccc" />
  </g>
</svg>
